<?xml version="1.0" encoding="UTF-8"?><svg id="Layer_1" xmlns="http://www.w3.org/2000/svg" width="1920" height="1080" xmlns:xlink="http://www.w3.org/1999/xlink" viewBox="0 0 1920 1080"><defs><style>.cls-1{fill:url(#linear-gradient);}.cls-2{fill:#fff;}</style><linearGradient id="linear-gradient" x1="0" y1="540" x2="1920" y2="540" gradientUnits="userSpaceOnUse"><stop offset="0" stop-color="#e8f3ea"/><stop offset=".33" stop-color="#cfe5d3"/><stop offset=".36" stop-color="#cae2ce"/><stop offset=".46" stop-color="#bedcc4"/><stop offset=".6" stop-color="#b7d8be"/><stop offset="1" stop-color="#b6d8bd"/></linearGradient></defs><rect class="cls-1" y="0" width="1920" height="1080"/><path class="cls-2" d="M965.76,747.4l1.03-32.81c0-.07,0-.14.01-.22l1.64-19.59,1.86-17.06,2.27-18.97s0-.02,0-.03l2.88-16.07s0-.02,0-.02l3.71-15.11s0-.01,0-.02l4.53-14.16s0-.01,0-.02l6.18-14.4s0,0,0,0l5.98-11.53,6.6-11.77,9.28-11.05,10.31-10.57,10.11-8.89,14.65-9.37,13.41-6.97,15.68-7.69,14.65-5.77,17.12-5.05,16.3-4.81,18.57-3.84,20.22-4.08,22.69-3.36,24.96-3.12,36.92-2.64,13.73-2.05c4.1-.61,8.23-1.04,12.36-1.28,15.98-.94,28.21-1.5,31.76-1.62h0l180.02-3.09-179.45-7.51-66.56-3.39-37.36-3.15-35.5-4.99-35.84-6.82-27.89-6.69-22.31-7.29-16.06-7.48-19.44-10.04-18.59-14.57-13.52-12.6-11.83-15.56-8.79-14.96s0,0,0,0l-6.08-15.16-5.74-16.33s0-.02,0-.02l-5.91-22.41s0-.03,0-.04l-3.38-23.8h0c-.02-.13-4.49-59.38-4.5-59.51h0l-.96-40.67-3.2-40.86-4.72,49.46c-.01.1-1.27,34.17-1.27,34.27l-1.17,10.88c0,.08,1.17-10.96,1.17-10.88l.02-2.1-4.75,52.2h0l-2.06,16.82-3.09,18.72s0,.02,0,.03l-4.12,16.55s0,.02-.01.03l-4.94,13.44-3.71,9.84s0,0,0,.01l-4.53,9.6-5.36,8.89-6.39,9.85-6.81,8.65-9.49,10.09-10.31,9.37-10.93,7.69-14.03,7.93-12.79,5.77-10.93,4.08-15.47,5.77-16.92,4.57-17.95,4.81-19.18,2.88-21.87,4.49-20.22,3.68-20.42,2.4-19.39,1.92-20.63,1.44-24.14,2.16-37.13,1.2-40.84,1.68h-48.68l-77.56,1.2-6.81,1.44,6.81,3.12h77.36l48.48,1.44,42.49,1.2,37.34,1.92,28.47,1.68,35.69,3.84,33.62,3.84,31.56,5.77,27.85,6.49,24.34,7.69,16.3,5.77,14.23,5.53,16.09,9.85,12.58,8.17,12.38,9.85,13.2,15.62,7.84,10.33,7.63,13.45s0,0,0,0l7.21,14.64s0,.02.01.03l3.91,12.24,4.12,13.92s0,.02,0,.03l3.58,16.95c.01.06.02.13.04.19l2.37,14.56,2.06,13.68s0,.02,0,.03l1.44,15.12,1.64,20.81c0,.06,0,.13.01.19l1.03,31.62h0c.07,6.65,3.59,54.24,4.48,60.81h0s0,0,0,0c.72-5.63,4.5-55.45,4.8-60.33,0-.09,0,.09,0,0h0Z"/><path class="cls-2" d="M1385.96,1042.92l.43-11.88s0-.05,0-.08l.69-7.09.78-6.18.94-6.83s0-.06.01-.09l1.19-5.74s.01-.06.02-.09l1.53-5.39s.02-.06.03-.1l1.86-5.02s.03-.09.05-.13l2.54-5.11s.03-.06.05-.09l2.48-4.13,2.69-4.16c.05-.07.1-.14.16-.2l3.76-3.88s.05-.05.07-.07l4.24-3.76s.05-.04.07-.06l4.12-3.13s.1-.07.16-.1l6-3.32s.06-.03.09-.05l5.56-2.5,6.52-2.77s.06-.02.09-.03l6.04-2.06s.06-.02.1-.03l7.12-1.81,6.77-1.73s.06-.01.09-.02l7.72-1.38,8.46-1.48,9.49-1.22,10.44-1.13,15.41-.95s.06,0,.08,0l5.7-.74c1.72-.22,3.44-.38,5.17-.47,6.69-.34,11.8-.54,13.29-.59h0l75.32-1.12-75.09-2.72-27.85-1.23-15.63-1.14-14.85-1.81-14.99-2.47-11.63-2.41s-.06-.01-.09-.02l-9.23-2.61s-.09-.03-.13-.04l-6.66-2.68-8.03-3.59c-.07-.03-.13-.07-.2-.11l-7.64-5.18s-.06-.04-.09-.06l-5.53-4.46c-.06-.05-.11-.1-.16-.15l-4.83-5.49s-.07-.08-.1-.13l-3.57-5.26c-.04-.06-.07-.12-.1-.18l-2.5-5.39-2.38-5.86s-.03-.07-.04-.11l-2.43-7.99c-.02-.06-.03-.11-.04-.17l-1.4-8.54h0s-1.88-21.5-1.88-21.54h0l-.4-14.72-1.34-14.79-1.97,17.91s-.53,12.37-.53,12.41l-.49,3.94s.49-3.97.49-3.94v-.76s-1.98,18.9-1.98,18.9h0l-.86,6.09-1.28,6.73s-.02.08-.03.12l-1.69,5.87c-.01.05-.03.1-.05.15l-2.04,4.8-1.53,3.51s-.03.07-.05.1l-1.84,3.37s-.05.08-.07.12l-2.2,3.16-2.64,3.52s-.05.06-.08.09l-2.77,3.04s-.05.06-.08.08l-3.89,3.58s-.05.04-.08.06l-4.22,3.31s-.08.06-.13.09l-4.46,2.71s-.07.04-.1.06l-5.77,2.82s-.06.03-.1.04l-5.27,2.05s-.05.02-.07.03l-4.54,1.47-6.42,2.07s-.07.02-.1.03l-7.03,1.64-7.45,1.73s-.08.02-.12.02l-7.96,1.04-9.15,1.62-8.42,1.33s-.05,0-.07,0l-8.51.87-8.11.7-8.63.52-10.1.78-15.54.43-17.09.61h-20.37l-32.35.43c-.07,0-.14,0-.21.02l-2.74.5,2.62,1.04c.15.06.31.09.47.09h32.12l20.28.52,17.78.43,15.62.7,11.91.61,14.93,1.39,14.03,1.39s.05,0,.07,0l13.17,2.08,11.61,2.34s.06.01.08.02l10.14,2.77,6.82,2.09,5.86,1.97c.07.02.13.05.19.08l6.64,3.52,5.21,2.93s.07.04.1.06l5.03,3.46c.07.05.13.1.19.16l5.41,5.54s.03.03.05.05l3.2,3.65s.08.09.11.14l3.12,4.76s.03.05.04.07l2.95,5.18c.03.06.06.13.09.19l1.6,4.34,1.71,4.99s.02.07.03.11l1.48,6.08s.01.05.01.07l.99,5.27.86,4.92s0,.05.01.08l.6,5.44.69,7.53s0,.05,0,.07l.43,11.45h0c.03,2.41,1.5,19.64,1.87,22.01h0s0,0,0,0c.3-2.04,1.88-20.07,2.01-21.84,0-.03,0,.03,0,0h0Z"/><rect class="cls-2" x="649.72" y="942.69" width="689.3" height="4.78"/><path class="cls-2" d="M282.84,417.95l.31-12.24s0-.05,0-.08l.5-7.31.56-6.36.68-7.04s0-.06.01-.09l.86-5.92s0-.06.02-.09l1.1-5.55s.01-.07.02-.1l1.34-5.17s.02-.09.04-.13l1.83-5.27s.02-.06.04-.09l1.79-4.26,1.94-4.28c.03-.07.07-.14.11-.2l2.72-3.99s.03-.05.05-.07l3.06-3.88s.04-.04.05-.06l2.97-3.23s.07-.07.11-.1l4.33-3.42s.05-.03.07-.05l4.02-2.58,4.7-2.85s.04-.02.06-.03l4.36-2.12s.05-.02.07-.03l5.14-1.87,4.89-1.78s.04-.01.07-.02l5.58-1.43,6.11-1.52,6.85-1.26,7.54-1.17,11.12-.98s.04,0,.06,0l4.12-.76c1.24-.23,2.49-.39,3.73-.48,4.83-.35,8.52-.56,9.6-.6h0l54.38-1.15-54.21-2.8-20.11-1.26-11.29-1.18-10.72-1.86-10.83-2.55-8.39-2.49s-.04-.01-.06-.02l-6.66-2.69s-.06-.03-.09-.05l-4.81-2.77-5.8-3.7s-.1-.07-.14-.11l-5.52-5.34s-.04-.04-.06-.07l-3.99-4.6s-.08-.1-.11-.16l-3.48-5.66s-.05-.09-.07-.13l-2.58-5.42c-.03-.06-.05-.12-.07-.19l-1.81-5.56-1.72-6.04s-.02-.08-.03-.11l-1.76-8.23c-.01-.06-.02-.11-.03-.17l-1.01-8.8h0s-1.36-22.16-1.36-22.2h0l-.29-15.17-.97-15.24-1.43,18.45s-.38,12.75-.38,12.79l-.35,4.06s.35-4.09.35-4.06v-.78s-1.43,19.48-1.43,19.48h0l-.62,6.28-.93,6.93s-.01.08-.02.12l-1.22,6.05c-.01.05-.02.1-.04.15l-1.47,4.95-1.11,3.62s-.02.07-.04.11l-1.33,3.47s-.03.08-.05.12l-1.59,3.26-1.91,3.63s-.04.07-.06.1l-2,3.14s-.04.06-.06.08l-2.81,3.69s-.04.05-.05.07l-3.04,3.42s-.06.06-.09.09l-3.22,2.8s-.05.04-.07.06l-4.16,2.91s-.05.03-.07.04l-3.8,2.12s-.03.02-.05.03l-3.28,1.51-4.64,2.13s-.05.02-.07.03l-5.07,1.69-5.38,1.78s-.06.02-.09.02l-5.75,1.07-6.61,1.67-6.08,1.37s-.03,0-.05,0l-6.14.89-5.86.72-6.23.54-7.29.81-11.22.45-12.34.63h-14.71l-23.35.45c-.05,0-.1,0-.15.02l-1.98.52,1.89,1.07c.11.06.22.09.34.09h23.19l14.64.54,12.84.45,11.28.72,8.6.63,10.78,1.43,10.13,1.43s.04,0,.05,0l9.51,2.15,8.38,2.41s.04.01.06.02l7.32,2.86,4.92,2.15,4.23,2.03s.09.05.14.08l4.79,3.63,3.76,3.02s.05.04.07.06l3.63,3.57s.1.1.14.17l3.91,5.71s.02.03.03.05l2.31,3.76s.05.1.08.15l2.25,4.91s.02.05.03.07l2.13,5.34c.03.06.05.13.06.2l1.16,4.47,1.23,5.14s.02.08.02.12l1.07,6.27s0,.05.01.07l.71,5.43.62,5.07s0,.06,0,.08l.43,5.61.5,7.76s0,.05,0,.07l.31,11.8h0c.02,2.48,1.09,20.24,1.35,22.69h0s0,0,0,0c.22-2.1,1.36-20.69,1.45-22.51,0-.03,0,.03,0,0h0Z"/><path class="cls-2" d="M181.59,242.14l.28-11.61s0-.05,0-.08l.44-6.93.5-6.04.6-6.68s0-.06,0-.08l.76-5.61s0-.06.01-.09l.98-5.27s.01-.06.02-.09l1.19-4.91s.02-.08.03-.12l1.62-5s.02-.06.03-.09l1.58-4.04,1.72-4.06c.03-.07.06-.13.1-.19l2.41-3.79s.03-.04.04-.06l2.71-3.68s.03-.04.05-.06l2.63-3.06s.06-.07.1-.1l3.84-3.25s.04-.03.06-.05l3.56-2.44,4.17-2.7s.04-.02.06-.03l3.86-2.01s.04-.02.06-.03l4.55-1.77,4.33-1.69s.04-.01.06-.02l4.94-1.35,5.41-1.45,6.07-1.19,6.68-1.11,9.85-.93s.04,0,.05,0l3.65-.72c1.1-.22,2.2-.37,3.31-.45,4.28-.33,7.55-.53,8.5-.57h0l48.16-1.09-48.01-2.66-17.81-1.2-9.99-1.12-9.5-1.77-9.59-2.41-7.43-2.36s-.04-.01-.06-.02l-5.9-2.55s-.06-.03-.08-.04l-4.26-2.62-5.13-3.51s-.09-.07-.13-.11l-4.89-5.07s-.04-.04-.05-.06l-3.54-4.36s-.07-.09-.1-.15l-3.08-5.37s-.04-.08-.06-.12l-2.28-5.15c-.03-.06-.05-.12-.07-.18l-1.6-5.27-1.52-5.73s-.02-.07-.03-.11l-1.56-7.81c-.01-.05-.02-.11-.03-.16l-.9-8.35h0s-1.2-21.02-1.2-21.06h0l-.26-14.39-.86-14.46-1.26,17.51s-.34,12.09-.34,12.13l-.31,3.85s.31-3.88.31-3.85v-.74s-1.27,18.48-1.27,18.48h0l-.55,5.95-.82,6.58s-.01.08-.02.11l-1.08,5.74s-.02.1-.03.15l-1.3,4.69-.98,3.44s-.02.07-.03.1l-1.17,3.29s-.03.08-.05.12l-1.41,3.09-1.69,3.44s-.03.06-.05.09l-1.77,2.98s-.03.05-.05.08l-2.49,3.5s-.03.04-.05.06l-2.7,3.24s-.05.06-.08.09l-2.85,2.65s-.04.04-.07.06l-3.69,2.76s-.04.03-.06.04l-3.37,2.01s-.03.02-.05.02l-2.9,1.43-4.11,2.03s-.04.02-.06.03l-4.49,1.6-4.76,1.69s-.05.02-.08.02l-5.09,1.01-5.85,1.59-5.39,1.3s-.03,0-.04,0l-5.44.85-5.19.68-5.52.51-6.46.77-9.93.43-10.93.6h-13.02l-20.68.42s-.09,0-.14.02l-1.75.49,1.68,1.02c.1.06.2.09.3.09h20.54l12.97.51,11.37.43,9.99.68,7.62.6,9.55,1.36,8.97,1.36s.03,0,.05,0l8.42,2.04,7.42,2.29s.04.01.05.02l6.48,2.71,4.36,2.04,3.74,1.92s.08.05.12.08l4.25,3.44,3.33,2.86s.04.04.06.06l3.21,3.38s.08.1.12.16l3.46,5.42s.02.03.03.05l2.04,3.56s.05.09.07.14l2,4.66s.02.04.03.07l1.88,5.06c.02.06.04.12.06.19l1.02,4.24,1.09,4.88s.02.07.02.11l.95,5.95s0,.04,0,.07l.63,5.15.55,4.81s0,.05,0,.08l.38,5.32.44,7.36s0,.05,0,.07l.28,11.19h0c.02,2.35.96,19.2,1.2,21.52h0s0,0,0,0c.19-1.99,1.2-19.62,1.29-21.35,0-.03,0,.03,0,0h0Z"/><path class="cls-2" d="M1789,186.53l.21-8.58s0-.04,0-.06l.34-5.12.39-4.46.47-4.93s0-.04,0-.06l.59-4.14s0-.04.01-.07l.76-3.89s0-.05.02-.07l.93-3.62s.02-.06.03-.09l1.27-3.69s.02-.04.02-.07l1.24-2.98,1.34-3c.02-.05.05-.1.08-.14l1.88-2.8s.02-.03.03-.05l2.12-2.72s.02-.03.04-.04l2.06-2.26s.05-.05.08-.07l3-2.4s.03-.02.05-.03l2.78-1.81,3.25-2s.03-.02.04-.02l3.01-1.48s.03-.01.05-.02l3.55-1.31,3.38-1.25s.03-.01.05-.01l3.86-1,4.22-1.07,4.74-.88,5.22-.82,7.69-.69s.03,0,.04,0l2.85-.53c.86-.16,1.72-.27,2.58-.34,3.34-.25,5.89-.39,6.64-.42h0l37.61-.81-37.49-1.96-13.91-.89-7.81-.82-7.42-1.3-7.49-1.78-5.81-1.74s-.03,0-.04-.02l-4.61-1.88s-.04-.02-.06-.03l-3.32-1.94-4.01-2.59s-.07-.05-.1-.08l-3.82-3.74s-.03-.03-.04-.05l-2.76-3.22s-.05-.07-.08-.11l-2.41-3.96s-.03-.06-.05-.09l-1.78-3.8s-.04-.09-.05-.13l-1.25-3.89-1.19-4.23s-.01-.05-.02-.08l-1.22-5.77s-.01-.08-.02-.12l-.7-6.17h0s-.94-15.52-.94-15.56h0l-.2-10.63-.67-10.68-.99,12.93s-.27,8.93-.27,8.96l-.24,2.84s.24-2.86.24-2.84v-.55s-.99,13.65-.99,13.65h0l-.43,4.4-.64,4.86s0,.06-.01.08l-.84,4.24s-.02.07-.03.11l-1.02,3.46-.76,2.54s-.02.05-.03.07l-.92,2.43s-.02.06-.04.09l-1.1,2.28-1.32,2.54s-.03.05-.04.07l-1.38,2.2s-.03.04-.04.06l-1.94,2.59s-.02.03-.04.05l-2.11,2.39s-.04.04-.06.06l-2.23,1.96s-.03.03-.05.04l-2.88,2.04s-.03.02-.05.03l-2.63,1.48s-.02.01-.04.02l-2.27,1.06-3.21,1.5s-.03.01-.05.02l-3.51,1.18-3.72,1.25s-.04.01-.06.02l-3.98.75-4.57,1.17-4.21.96s-.02,0-.03,0l-4.25.63-4.05.5-4.31.38-5.04.57-7.76.31-8.53.44h-10.17l-16.15.31s-.07,0-.11.01l-1.37.36,1.31.75c.07.04.15.06.23.06h16.04l10.13.38,8.88.31,7.8.5,5.95.44,7.46,1,7.01,1s.02,0,.04,0l6.58,1.5,5.8,1.69s.03,0,.04.01l5.06,2,3.4,1.51,2.92,1.42s.06.04.1.06l3.32,2.54,2.6,2.11s.03.03.05.04l2.51,2.5s.07.07.09.12l2.7,4s.02.02.02.04l1.6,2.63s.04.07.05.1l1.56,3.44s.01.03.02.05l1.47,3.74s.03.09.04.14l.8,3.13.85,3.6s.01.05.02.08l.74,4.39s0,.03,0,.05l.49,3.81.43,3.55s0,.04,0,.06l.3,3.93.34,5.44s0,.03,0,.05l.21,8.27h0c.02,1.74.75,14.18.94,15.9h0s0,0,0,0c.15-1.47.94-14.49,1-15.77,0-.02,0,.02,0,0h0Z"/><path class="cls-2" d="M1714.24,323.17l.21-8.58s0-.04,0-.06l.34-5.12.39-4.46.47-4.93s0-.04,0-.06l.59-4.14s0-.04.01-.07l.76-3.89s0-.05.02-.07l.93-3.62s.02-.06.03-.09l1.27-3.69s.02-.04.02-.07l1.24-2.98,1.34-3c.02-.05.05-.1.08-.14l1.88-2.8s.02-.03.03-.05l2.12-2.72s.02-.03.04-.04l2.06-2.26s.05-.05.08-.07l3-2.4s.03-.02.05-.03l2.78-1.81,3.25-2s.03-.02.04-.02l3.01-1.48s.03-.01.05-.02l3.55-1.31,3.38-1.25s.03-.01.05-.01l3.86-1,4.22-1.07,4.74-.88,5.22-.82,7.69-.69s.03,0,.04,0l2.85-.53c.86-.16,1.72-.27,2.58-.34,3.34-.25,5.89-.39,6.64-.42h0l37.61-.81-37.49-1.96-13.91-.89-7.81-.82-7.42-1.3-7.49-1.78-5.81-1.74s-.03,0-.04-.02l-4.61-1.88s-.04-.02-.06-.03l-3.32-1.94-4.01-2.59s-.07-.05-.1-.08l-3.82-3.74s-.03-.03-.04-.05l-2.76-3.22s-.05-.07-.08-.11l-2.41-3.96s-.03-.06-.05-.09l-1.78-3.8s-.04-.09-.05-.13l-1.25-3.89-1.19-4.23s-.01-.05-.02-.08l-1.22-5.77s-.01-.08-.02-.12l-.7-6.17h0s-.94-15.52-.94-15.56h0l-.2-10.63-.67-10.68-.99,12.93s-.27,8.93-.27,8.96l-.24,2.84s.24-2.86.24-2.84v-.55s-.99,13.65-.99,13.65h0l-.43,4.4-.64,4.86s0,.06-.01.08l-.84,4.24s-.02.07-.03.11l-1.02,3.46-.76,2.54s-.02.05-.03.07l-.92,2.43s-.02.06-.04.09l-1.1,2.28-1.32,2.54s-.03.05-.04.07l-1.38,2.2s-.03.04-.04.06l-1.94,2.59s-.02.03-.04.05l-2.11,2.39s-.04.04-.06.06l-2.23,1.96s-.03.03-.05.04l-2.88,2.04s-.03.02-.05.03l-2.63,1.48s-.02.01-.04.02l-2.27,1.06-3.21,1.5s-.03.01-.05.02l-3.51,1.18-3.72,1.25s-.04.01-.06.02l-3.98.75-4.57,1.17-4.21.96s-.02,0-.03,0l-4.25.63-4.05.5-4.31.38-5.04.57-7.76.31-8.53.44h-10.17l-16.15.31s-.07,0-.11.01l-1.37.36,1.31.75c.07.04.15.06.23.06h16.04l10.13.38,8.88.31,7.8.5,5.95.44,7.46,1,7.01,1s.02,0,.04,0l6.58,1.5,5.8,1.69s.03,0,.04.01l5.06,2,3.4,1.51,2.92,1.42s.06.04.1.06l3.32,2.54,2.6,2.11s.03.03.05.04l2.51,2.5s.07.07.09.12l2.7,4s.02.02.02.04l1.6,2.63s.04.07.05.1l1.56,3.44s.01.03.02.05l1.47,3.74s.03.09.04.14l.8,3.13.85,3.6s.01.05.02.08l.74,4.39s0,.03,0,.05l.49,3.81.43,3.55s0,.04,0,.06l.3,3.93.34,5.44s0,.03,0,.05l.21,8.27h0c.02,1.74.75,14.18.94,15.9h0s0,0,0,0c.15-1.47.94-14.49,1-15.77,0-.02,0,.02,0,0h0Z"/></svg>