<?xml version="1.0" encoding="UTF-8"?><svg id="Layer_1" xmlns="http://www.w3.org/2000/svg" width="1920" height="1080" xmlns:xlink="http://www.w3.org/1999/xlink" viewBox="0 0 1920 1080"><defs><style>.cls-1,.cls-2{fill:none;}.cls-2{stroke:#231f20;stroke-miterlimit:10;}.cls-3{fill:#58524b;}.cls-4{clip-path:url(#clippath-1);}.cls-5{clip-path:url(#clippath);}</style><clipPath id="clippath"><rect class="cls-1" x="-.5" y="-.5" width="1921" height="1081"/></clipPath><clipPath id="clippath-1"><rect class="cls-1" x="-.5" y="-.5" width="1921" height="1081"/></clipPath></defs><g id="Artwork_14"><g class="cls-5"><g class="cls-4"><path class="cls-3" d="M670.2,0c-.71.41-1.58.65-2.62.6-2.47-.1-4.92-.32-7.37-.6h-11.7c-.8.75-1.92,1.2-3.4,1.1-4.74-.33-9.47-.78-14.21-1.1h-3.41c-.67,1.51-2.11,2.58-4.34,2.35-9.87-1.02-19.75-1.82-29.66-2.12-.6,1.75-2.11,3.14-4.53,3.12-3.51-.03-6.99-.5-10.48-.75-1.85-.13-3.49-1.1-4.35-2.6H0v1080h1920V0H670.2Z"/><path class="cls-2" d="M670.2,0c-.71.41-1.58.65-2.62.6-2.47-.1-4.92-.32-7.37-.6h-11.7c-.8.75-1.92,1.2-3.4,1.1-4.74-.33-9.47-.78-14.21-1.1h-3.41c-.67,1.51-2.11,2.58-4.34,2.35-9.87-1.02-19.75-1.82-29.66-2.12-.6,1.75-2.11,3.14-4.53,3.12-3.51-.03-6.99-.5-10.48-.75-1.85-.13-3.49-1.1-4.35-2.6H0v1080h1920V0H670.2Z"/></g></g></g></svg>