<?xml version="1.0" encoding="UTF-8"?><svg id="Layer_1" xmlns="http://www.w3.org/2000/svg" width="1920" height="1080" xmlns:xlink="http://www.w3.org/1999/xlink" viewBox="0 0 1920 1080"><defs><style>.cls-1{fill:url(#linear-gradient);}.cls-2{fill:#fff;}.cls-3{fill:#556758;}</style><linearGradient id="linear-gradient" x1="0" y1="540" x2="1920" y2="540" gradientUnits="userSpaceOnUse"><stop offset="0" stop-color="#e8f3ea"/><stop offset=".33" stop-color="#cfe5d3"/><stop offset=".36" stop-color="#cae2ce"/><stop offset=".46" stop-color="#bedcc4"/><stop offset=".6" stop-color="#b7d8be"/><stop offset="1" stop-color="#b6d8bd"/></linearGradient></defs><rect class="cls-1" y="0" width="1920" height="1080"/><path class="cls-2" d="M965.76,747.4l1.03-32.81c0-.07,0-.14.01-.22l1.64-19.59,1.86-17.06,2.27-18.97s0-.02,0-.03l2.88-16.07s0-.02,0-.02l3.71-15.11s0-.01,0-.02l4.53-14.16s0-.01,0-.02l6.18-14.4s0,0,0,0l5.98-11.53,6.6-11.77,9.28-11.05,10.31-10.57,10.11-8.89,14.65-9.37,13.41-6.97,15.68-7.69,14.65-5.77,17.12-5.05,16.3-4.81,18.57-3.84,20.22-4.08,22.69-3.36,24.96-3.12,36.92-2.64,13.73-2.05c4.1-.61,8.23-1.04,12.36-1.28,15.98-.94,28.21-1.5,31.76-1.62h0l180.02-3.09-179.45-7.51-66.56-3.39-37.36-3.15-35.5-4.99-35.84-6.82-27.89-6.69-22.31-7.29-16.06-7.48-19.44-10.04-18.59-14.57-13.52-12.6-11.83-15.56-8.79-14.96s0,0,0,0l-6.08-15.16-5.74-16.33s0-.02,0-.02l-5.91-22.41s0-.03,0-.04l-3.38-23.8h0c-.02-.13-4.49-59.38-4.5-59.51h0l-.96-40.67-3.2-40.86-4.72,49.46c-.01.1-1.27,34.17-1.27,34.27l-1.17,10.88c0,.08,1.17-10.96,1.17-10.88l.02-2.1-4.75,52.2h0l-2.06,16.82-3.09,18.72s0,.02,0,.03l-4.12,16.55s0,.02-.01.03l-4.94,13.44-3.71,9.84s0,0,0,.01l-4.53,9.6-5.36,8.89-6.39,9.85-6.81,8.65-9.49,10.09-10.31,9.37-10.93,7.69-14.03,7.93-12.79,5.77-10.93,4.08-15.47,5.77-16.92,4.57-17.95,4.81-19.18,2.88-21.87,4.49-20.22,3.68-20.42,2.4-19.39,1.92-20.63,1.44-24.14,2.16-37.13,1.2-40.84,1.68h-48.68l-77.56,1.2-6.81,1.44,6.81,3.12h77.36l48.48,1.44,42.49,1.2,37.34,1.92,28.47,1.68,35.69,3.84,33.62,3.84,31.56,5.77,27.85,6.49,24.34,7.69,16.3,5.77,14.23,5.53,16.09,9.85,12.58,8.17,12.38,9.85,13.2,15.62,7.84,10.33,7.63,13.45s0,0,0,0l7.21,14.64s0,.02.01.03l3.91,12.24,4.12,13.92s0,.02,0,.03l3.58,16.95c.01.06.02.13.04.19l2.37,14.56,2.06,13.68s0,.02,0,.03l1.44,15.12,1.64,20.81c0,.06,0,.13.01.19l1.03,31.62h0c.07,6.65,3.59,54.24,4.48,60.81h0s0,0,0,0c.72-5.63,4.5-55.45,4.8-60.33,0-.09,0,.09,0,0h0Z"/><path class="cls-2" d="M1385.96,1042.92l.43-11.88s0-.05,0-.08l.69-7.09.78-6.18.94-6.83s0-.06.01-.09l1.19-5.74s.01-.06.02-.09l1.53-5.39s.02-.06.03-.1l1.86-5.02s.03-.09.05-.13l2.54-5.11s.03-.06.05-.09l2.48-4.13,2.69-4.16c.05-.07.1-.14.16-.2l3.76-3.88s.05-.05.07-.07l4.24-3.76s.05-.04.07-.06l4.12-3.13s.1-.07.16-.1l6-3.32s.06-.03.09-.05l5.56-2.5,6.52-2.77s.06-.02.09-.03l6.04-2.06s.06-.02.1-.03l7.12-1.81,6.77-1.73s.06-.01.09-.02l7.72-1.38,8.46-1.48,9.49-1.22,10.44-1.13,15.41-.95s.06,0,.08,0l5.7-.74c1.72-.22,3.44-.38,5.17-.47,6.69-.34,11.8-.54,13.29-.59h0l75.32-1.12-75.09-2.72-27.85-1.23-15.63-1.14-14.85-1.81-14.99-2.47-11.63-2.41s-.06-.01-.09-.02l-9.23-2.61s-.09-.03-.13-.04l-6.66-2.68-8.03-3.59c-.07-.03-.13-.07-.2-.11l-7.64-5.18s-.06-.04-.09-.06l-5.53-4.46c-.06-.05-.11-.1-.16-.15l-4.83-5.49s-.07-.08-.1-.13l-3.57-5.26c-.04-.06-.07-.12-.1-.18l-2.5-5.39-2.38-5.86s-.03-.07-.04-.11l-2.43-7.99c-.02-.06-.03-.11-.04-.17l-1.4-8.54h0s-1.88-21.5-1.88-21.54h0l-.4-14.72-1.34-14.79-1.97,17.91s-.53,12.37-.53,12.41l-.49,3.94s.49-3.97.49-3.94v-.76s-1.98,18.9-1.98,18.9h0l-.86,6.09-1.28,6.73s-.02.08-.03.12l-1.69,5.87c-.01.05-.03.1-.05.15l-2.04,4.8-1.53,3.51s-.03.07-.05.1l-1.84,3.37s-.05.08-.07.12l-2.2,3.16-2.64,3.52s-.05.06-.08.09l-2.77,3.04s-.05.06-.08.08l-3.89,3.58s-.05.04-.08.06l-4.22,3.31s-.08.06-.13.09l-4.46,2.71s-.07.04-.1.06l-5.77,2.82s-.06.03-.1.04l-5.27,2.05s-.05.02-.07.03l-4.54,1.47-6.42,2.07s-.07.02-.1.03l-7.03,1.64-7.45,1.73s-.08.02-.12.02l-7.96,1.04-9.15,1.62-8.42,1.33s-.05,0-.07,0l-8.51.87-8.11.7-8.63.52-10.1.78-15.54.43-17.09.61h-20.37l-32.35.43c-.07,0-.14,0-.21.02l-2.74.5,2.62,1.04c.15.06.31.09.47.09h32.12l20.28.52,17.78.43,15.62.7,11.91.61,14.93,1.39,14.03,1.39s.05,0,.07,0l13.17,2.08,11.61,2.34s.06.01.08.02l10.14,2.77,6.82,2.09,5.86,1.97c.07.02.13.05.19.08l6.64,3.52,5.21,2.93s.07.04.1.06l5.03,3.46c.07.05.13.1.19.16l5.41,5.54s.03.03.05.05l3.2,3.65s.08.09.11.14l3.12,4.76s.03.05.04.07l2.95,5.18c.03.06.06.13.09.19l1.6,4.34,1.71,4.99s.02.07.03.11l1.48,6.08s.01.05.01.07l.99,5.27.86,4.92s0,.05.01.08l.6,5.44.69,7.53s0,.05,0,.07l.43,11.45h0c.03,2.41,1.5,19.64,1.87,22.01h0s0,0,0,0c.3-2.04,1.88-20.07,2.01-21.84,0-.03,0,.03,0,0h0Z"/><rect class="cls-2" x="649.72" y="942.69" width="689.3" height="4.78"/><path class="cls-2" d="M282.84,417.95l.31-12.24s0-.05,0-.08l.5-7.31.56-6.36.68-7.04s0-.06.01-.09l.86-5.92s0-.06.02-.09l1.1-5.55s.01-.07.02-.1l1.34-5.17s.02-.09.04-.13l1.83-5.27s.02-.06.04-.09l1.79-4.26,1.94-4.28c.03-.07.07-.14.11-.2l2.72-3.99s.03-.05.05-.07l3.06-3.88s.04-.04.05-.06l2.97-3.23s.07-.07.11-.1l4.33-3.42s.05-.03.07-.05l4.02-2.58,4.7-2.85s.04-.02.06-.03l4.36-2.12s.05-.02.07-.03l5.14-1.87,4.89-1.78s.04-.01.07-.02l5.58-1.43,6.11-1.52,6.85-1.26,7.54-1.17,11.12-.98s.04,0,.06,0l4.12-.76c1.24-.23,2.49-.39,3.73-.48,4.83-.35,8.52-.56,9.6-.6h0l54.38-1.15-54.21-2.8-20.11-1.26-11.29-1.18-10.72-1.86-10.83-2.55-8.39-2.49s-.04-.01-.06-.02l-6.66-2.69s-.06-.03-.09-.05l-4.81-2.77-5.8-3.7s-.1-.07-.14-.11l-5.52-5.34s-.04-.04-.06-.07l-3.99-4.6s-.08-.1-.11-.16l-3.48-5.66s-.05-.09-.07-.13l-2.58-5.42c-.03-.06-.05-.12-.07-.19l-1.81-5.56-1.72-6.04s-.02-.08-.03-.11l-1.76-8.23c-.01-.06-.02-.11-.03-.17l-1.01-8.8h0s-1.36-22.16-1.36-22.2h0l-.29-15.17-.97-15.24-1.43,18.45s-.38,12.75-.38,12.79l-.35,4.06s.35-4.09.35-4.06v-.78s-1.43,19.48-1.43,19.48h0l-.62,6.28-.93,6.93s-.01.08-.02.12l-1.22,6.05c-.01.05-.02.1-.04.15l-1.47,4.95-1.11,3.62s-.02.07-.04.11l-1.33,3.47s-.03.08-.05.12l-1.59,3.26-1.91,3.63s-.04.07-.06.1l-2,3.14s-.04.06-.06.08l-2.81,3.69s-.04.05-.05.07l-3.04,3.42s-.06.06-.09.09l-3.22,2.8s-.05.04-.07.06l-4.16,2.91s-.05.03-.07.04l-3.8,2.12s-.03.02-.05.03l-3.28,1.51-4.64,2.13s-.05.02-.07.03l-5.07,1.69-5.38,1.78s-.06.02-.09.02l-5.75,1.07-6.61,1.67-6.08,1.37s-.03,0-.05,0l-6.14.89-5.86.72-6.23.54-7.29.81-11.22.45-12.34.63h-14.71l-23.35.45c-.05,0-.1,0-.15.02l-1.98.52,1.89,1.07c.11.06.22.09.34.09h23.19l14.64.54,12.84.45,11.28.72,8.6.63,10.78,1.43,10.13,1.43s.04,0,.05,0l9.51,2.15,8.38,2.41s.04.01.06.02l7.32,2.86,4.92,2.15,4.23,2.03s.09.05.14.08l4.79,3.63,3.76,3.02s.05.04.07.06l3.63,3.57s.1.1.14.17l3.91,5.71s.02.03.03.05l2.31,3.76s.05.1.08.15l2.25,4.91s.02.05.03.07l2.13,5.34c.03.06.05.13.06.2l1.16,4.47,1.23,5.14s.02.08.02.12l1.07,6.27s0,.05.01.07l.71,5.43.62,5.07s0,.06,0,.08l.43,5.61.5,7.76s0,.05,0,.07l.31,11.8h0c.02,2.48,1.09,20.24,1.35,22.69h0s0,0,0,0c.22-2.1,1.36-20.69,1.45-22.51,0-.03,0,.03,0,0h0Z"/><path class="cls-2" d="M181.59,242.14l.28-11.61s0-.05,0-.08l.44-6.93.5-6.04.6-6.68s0-.06,0-.08l.76-5.61s0-.06.01-.09l.98-5.27s.01-.06.02-.09l1.19-4.91s.02-.08.03-.12l1.62-5s.02-.06.03-.09l1.58-4.04,1.72-4.06c.03-.07.06-.13.1-.19l2.41-3.79s.03-.04.04-.06l2.71-3.68s.03-.04.05-.06l2.63-3.06s.06-.07.1-.1l3.84-3.25s.04-.03.06-.05l3.56-2.44,4.17-2.7s.04-.02.06-.03l3.86-2.01s.04-.02.06-.03l4.55-1.77,4.33-1.69s.04-.01.06-.02l4.94-1.35,5.41-1.45,6.07-1.19,6.68-1.11,9.85-.93s.04,0,.05,0l3.65-.72c1.1-.22,2.2-.37,3.31-.45,4.28-.33,7.55-.53,8.5-.57h0l48.16-1.09-48.01-2.66-17.81-1.2-9.99-1.12-9.5-1.77-9.59-2.41-7.43-2.36s-.04-.01-.06-.02l-5.9-2.55s-.06-.03-.08-.04l-4.26-2.62-5.13-3.51s-.09-.07-.13-.11l-4.89-5.07s-.04-.04-.05-.06l-3.54-4.36s-.07-.09-.1-.15l-3.08-5.37s-.04-.08-.06-.12l-2.28-5.15c-.03-.06-.05-.12-.07-.18l-1.6-5.27-1.52-5.73s-.02-.07-.03-.11l-1.56-7.81c-.01-.05-.02-.11-.03-.16l-.9-8.35h0s-1.2-21.02-1.2-21.06h0l-.26-14.39-.86-14.46-1.26,17.51s-.34,12.09-.34,12.13l-.31,3.85s.31-3.88.31-3.85v-.74s-1.27,18.48-1.27,18.48h0l-.55,5.95-.82,6.58s-.01.08-.02.11l-1.08,5.74s-.02.1-.03.15l-1.3,4.69-.98,3.44s-.02.07-.03.1l-1.17,3.29s-.03.08-.05.12l-1.41,3.09-1.69,3.44s-.03.06-.05.09l-1.77,2.98s-.03.05-.05.08l-2.49,3.5s-.03.04-.05.06l-2.7,3.24s-.05.06-.08.09l-2.85,2.65s-.04.04-.07.06l-3.69,2.76s-.04.03-.06.04l-3.37,2.01s-.03.02-.05.02l-2.9,1.43-4.11,2.03s-.04.02-.06.03l-4.49,1.6-4.76,1.69s-.05.02-.08.02l-5.09,1.01-5.85,1.59-5.39,1.3s-.03,0-.04,0l-5.44.85-5.19.68-5.52.51-6.46.77-9.93.43-10.93.6h-13.02l-20.68.42s-.09,0-.14.02l-1.75.49,1.68,1.02c.1.06.2.09.3.09h20.54l12.97.51,11.37.43,9.99.68,7.62.6,9.55,1.36,8.97,1.36s.03,0,.05,0l8.42,2.04,7.42,2.29s.04.01.05.02l6.48,2.71,4.36,2.04,3.74,1.92s.08.05.12.08l4.25,3.44,3.33,2.86s.04.04.06.06l3.21,3.38s.08.1.12.16l3.46,5.42s.02.03.03.05l2.04,3.56s.05.09.07.14l2,4.66s.02.04.03.07l1.88,5.06c.02.06.04.12.06.19l1.02,4.24,1.09,4.88s.02.07.02.11l.95,5.95s0,.04,0,.07l.63,5.15.55,4.81s0,.05,0,.08l.38,5.32.44,7.36s0,.05,0,.07l.28,11.19h0c.02,2.35.96,19.2,1.2,21.52h0s0,0,0,0c.19-1.99,1.2-19.62,1.29-21.35,0-.03,0,.03,0,0h0Z"/><path class="cls-2" d="M1789,186.53l.21-8.58s0-.04,0-.06l.34-5.12.39-4.46.47-4.93s0-.04,0-.06l.59-4.14s0-.04.01-.07l.76-3.89s0-.05.02-.07l.93-3.62s.02-.06.03-.09l1.27-3.69s.02-.04.02-.07l1.24-2.98,1.34-3c.02-.05.05-.1.08-.14l1.88-2.8s.02-.03.03-.05l2.12-2.72s.02-.03.04-.04l2.06-2.26s.05-.05.08-.07l3-2.4s.03-.02.05-.03l2.78-1.81,3.25-2s.03-.02.04-.02l3.01-1.48s.03-.01.05-.02l3.55-1.31,3.38-1.25s.03-.01.05-.01l3.86-1,4.22-1.07,4.74-.88,5.22-.82,7.69-.69s.03,0,.04,0l2.85-.53c.86-.16,1.72-.27,2.58-.34,3.34-.25,5.89-.39,6.64-.42h0l37.61-.81-37.49-1.96-13.91-.89-7.81-.82-7.42-1.3-7.49-1.78-5.81-1.74s-.03,0-.04-.02l-4.61-1.88s-.04-.02-.06-.03l-3.32-1.94-4.01-2.59s-.07-.05-.1-.08l-3.82-3.74s-.03-.03-.04-.05l-2.76-3.22s-.05-.07-.08-.11l-2.41-3.96s-.03-.06-.05-.09l-1.78-3.8s-.04-.09-.05-.13l-1.25-3.89-1.19-4.23s-.01-.05-.02-.08l-1.22-5.77s-.01-.08-.02-.12l-.7-6.17h0s-.94-15.52-.94-15.56h0l-.2-10.63-.67-10.68-.99,12.93s-.27,8.93-.27,8.96l-.24,2.84s.24-2.86.24-2.84v-.55s-.99,13.65-.99,13.65h0l-.43,4.4-.64,4.86s0,.06-.01.08l-.84,4.24s-.02.07-.03.11l-1.02,3.46-.76,2.54s-.02.05-.03.07l-.92,2.43s-.02.06-.04.09l-1.1,2.28-1.32,2.54s-.03.05-.04.07l-1.38,2.2s-.03.04-.04.06l-1.94,2.59s-.02.03-.04.05l-2.11,2.39s-.04.04-.06.06l-2.23,1.96s-.03.03-.05.04l-2.88,2.04s-.03.02-.05.03l-2.63,1.48s-.02.01-.04.02l-2.27,1.06-3.21,1.5s-.03.01-.05.02l-3.51,1.18-3.72,1.25s-.04.01-.06.02l-3.98.75-4.57,1.17-4.21.96s-.02,0-.03,0l-4.25.63-4.05.5-4.31.38-5.04.57-7.76.31-8.53.44h-10.17l-16.15.31s-.07,0-.11.01l-1.37.36,1.31.75c.07.04.15.06.23.06h16.04l10.13.38,8.88.31,7.8.5,5.95.44,7.46,1,7.01,1s.02,0,.04,0l6.58,1.5,5.8,1.69s.03,0,.04.01l5.06,2,3.4,1.51,2.92,1.42s.06.04.1.06l3.32,2.54,2.6,2.11s.03.03.05.04l2.51,2.5s.07.07.09.12l2.7,4s.02.02.02.04l1.6,2.63s.04.07.05.1l1.56,3.44s.01.03.02.05l1.47,3.74s.03.09.04.14l.8,3.13.85,3.6s.01.05.02.08l.74,4.39s0,.03,0,.05l.49,3.81.43,3.55s0,.04,0,.06l.3,3.93.34,5.44s0,.03,0,.05l.21,8.27h0c.02,1.74.75,14.18.94,15.9h0s0,0,0,0c.15-1.47.94-14.49,1-15.77,0-.02,0,.02,0,0h0Z"/><path class="cls-2" d="M1714.24,323.17l.21-8.58s0-.04,0-.06l.34-5.12.39-4.46.47-4.93s0-.04,0-.06l.59-4.14s0-.04.01-.07l.76-3.89s0-.05.02-.07l.93-3.62s.02-.06.03-.09l1.27-3.69s.02-.04.02-.07l1.24-2.98,1.34-3c.02-.05.05-.1.08-.14l1.88-2.8s.02-.03.03-.05l2.12-2.72s.02-.03.04-.04l2.06-2.26s.05-.05.08-.07l3-2.4s.03-.02.05-.03l2.78-1.81,3.25-2s.03-.02.04-.02l3.01-1.48s.03-.01.05-.02l3.55-1.31,3.38-1.25s.03-.01.05-.01l3.86-1,4.22-1.07,4.74-.88,5.22-.82,7.69-.69s.03,0,.04,0l2.85-.53c.86-.16,1.72-.27,2.58-.34,3.34-.25,5.89-.39,6.64-.42h0l37.61-.81-37.49-1.96-13.91-.89-7.81-.82-7.42-1.3-7.49-1.78-5.81-1.74s-.03,0-.04-.02l-4.61-1.88s-.04-.02-.06-.03l-3.32-1.94-4.01-2.59s-.07-.05-.1-.08l-3.82-3.74s-.03-.03-.04-.05l-2.76-3.22s-.05-.07-.08-.11l-2.41-3.96s-.03-.06-.05-.09l-1.78-3.8s-.04-.09-.05-.13l-1.25-3.89-1.19-4.23s-.01-.05-.02-.08l-1.22-5.77s-.01-.08-.02-.12l-.7-6.17h0s-.94-15.52-.94-15.56h0l-.2-10.63-.67-10.68-.99,12.93s-.27,8.93-.27,8.96l-.24,2.84s.24-2.86.24-2.84v-.55s-.99,13.65-.99,13.65h0l-.43,4.4-.64,4.86s0,.06-.01.08l-.84,4.24s-.02.07-.03.11l-1.02,3.46-.76,2.54s-.02.05-.03.07l-.92,2.43s-.02.06-.04.09l-1.1,2.28-1.32,2.54s-.03.05-.04.07l-1.38,2.2s-.03.04-.04.06l-1.94,2.59s-.02.03-.04.05l-2.11,2.39s-.04.04-.06.06l-2.23,1.96s-.03.03-.05.04l-2.88,2.04s-.03.02-.05.03l-2.63,1.48s-.02.01-.04.02l-2.27,1.06-3.21,1.5s-.03.01-.05.02l-3.51,1.18-3.72,1.25s-.04.01-.06.02l-3.98.75-4.57,1.17-4.21.96s-.02,0-.03,0l-4.25.63-4.05.5-4.31.38-5.04.57-7.76.31-8.53.44h-10.17l-16.15.31s-.07,0-.11.01l-1.37.36,1.31.75c.07.04.15.06.23.06h16.04l10.13.38,8.88.31,7.8.5,5.95.44,7.46,1,7.01,1s.02,0,.04,0l6.58,1.5,5.8,1.69s.03,0,.04.01l5.06,2,3.4,1.51,2.92,1.42s.06.04.1.06l3.32,2.54,2.6,2.11s.03.03.05.04l2.51,2.5s.07.07.09.12l2.7,4s.02.02.02.04l1.6,2.63s.04.07.05.1l1.56,3.44s.01.03.02.05l1.47,3.74s.03.09.04.14l.8,3.13.85,3.6s.01.05.02.08l.74,4.39s0,.03,0,.05l.49,3.81.43,3.55s0,.04,0,.06l.3,3.93.34,5.44s0,.03,0,.05l.21,8.27h0c.02,1.74.75,14.18.94,15.9h0s0,0,0,0c.15-1.47.94-14.49,1-15.77,0-.02,0,.02,0,0h0Z"/><path class="cls-3" d="M557.36,389.06v-7.86c13.77.49,24.66.74,32.68.74,5.34,0,11.03-.08,17.06-.25l16.13-.61c1.78-.08,3.42-.12,4.93-.12,10.89,0,19.46,1.43,25.69,4.3,6.23,2.87,11.1,7.43,14.59,13.69,3.49,6.26,5.24,13.41,5.24,21.43,0,7.21-1.46,14.37-4.37,21.49-2.91,7.12-7.14,13.16-12.69,18.11-5.55,4.95-11.34,8.5-17.37,10.62-4.11,1.47-8.77,2.21-13.98,2.21-4.38,0-9.11-.57-14.18-1.72l-2.16-9.21c6.1,1.64,10.89,2.46,14.39,2.46,5.14,0,10.02-1.49,14.64-4.48,4.62-2.98,8.22-7.48,10.79-13.49,2.57-6.01,3.85-12.65,3.85-19.92s-1.25-13.38-3.75-19.07c-2.5-5.68-6.3-9.99-11.41-12.94-5.1-2.94-11.29-4.41-18.55-4.41-6.51,0-13.5,1.39-20.96,4.18-.62,8.68-.92,22.27-.92,40.77v61.9c0,11.14.1,21.98.31,32.55.21,7.78.7,12.4,1.49,13.88.79,1.47,2.06,2.56,3.8,3.25,1.75.7,6.7,1.13,14.85,1.29v7.86c-12.67-.65-21.99-.98-27.95-.98-2.33,0-13.05.33-32.16.98v-7.86c8.08-.16,13.02-.59,14.8-1.29,1.78-.69,3.01-1.66,3.7-2.89.82-1.64,1.34-5.61,1.54-11.91.07-1.72.21-13.34.41-34.88v-56.86c0-11.13-.1-22.02-.31-32.67-.21-7.78-.7-12.38-1.49-13.82-.79-1.43-2.06-2.5-3.8-3.19-1.75-.69-6.7-1.12-14.85-1.29Z"/><path class="cls-3" d="M685.91,499.23c0-18.34,4.88-33.3,14.64-44.89,9.76-11.58,22.28-17.38,37.56-17.38,14.39,0,26.1,5.4,35.14,16.21s13.56,24.77,13.56,41.88c0,11.96-2.33,22.89-6.99,32.79-4.66,9.91-11.24,17.67-19.73,23.27-8.5,5.61-17.85,8.41-28.05,8.41-7.95,0-14.68-1.6-20.19-4.79-5.52-3.19-9.99-7.2-13.41-12.04-3.43-4.83-6.03-9.78-7.81-14.86-3.15-8.92-4.73-18.46-4.73-28.62ZM705.34,490.14c0,10.07,1.4,20.31,4.21,30.7,2.81,10.4,6.87,17.99,12.18,22.78,5.31,4.79,11.08,7.18,17.32,7.18,7.95,0,14.59-3.76,19.94-11.3,5.34-7.53,8.01-19.12,8.01-34.76,0-13.02-1.59-24.26-4.78-33.71s-7.24-16.13-12.18-20.02c-4.93-3.89-10.38-5.83-16.34-5.83-8.43,0-15.26,3.64-20.5,10.93-5.24,7.29-7.86,18.63-7.86,34.02Z"/><path class="cls-3" d="M798.64,555.72v-7c7.74-.16,11.92-.33,12.54-.49,1.16-.25,2.04-.63,2.62-1.17.58-.53,1.04-1.29,1.39-2.27.68-1.88,1.1-4.83,1.23-8.84.41-21.86.62-33.28.62-34.26v-14.61c0-6.55-.1-13.59-.31-21.12-.14-4.83-.43-7.69-.87-8.6-.45-.9-1.23-1.58-2.36-2.03-1.13-.45-5.6-.63-13.41-.55v-7c13.84-2.29,23.94-5.28,30.31-8.97,1.37-.82,2.29-1.23,2.77-1.23s.86.21,1.13.61c.27.41.41,1.02.41,1.84,0,.57-.04,1.23-.1,1.96-.34,5-.55,12.73-.62,23.21,3.08-4.26,5.92-8.47,8.53-12.65,2.6-4.18,4.49-6.88,5.65-8.11,2.06-2.13,4.42-3.83,7.09-5.1,2.67-1.27,5.45-1.9,8.32-1.9s5.72.74,8.53,2.21l.62,1.72c-1.03,10.89-1.61,20.47-1.75,28.74h-4.62c-1.58-3.93-3.41-6.8-5.5-8.6-2.09-1.8-4.71-2.7-7.86-2.7-5.28,0-9.76,2.6-13.46,7.8-3.7,5.2-5.55,13-5.55,23.4v12.65c0,5.4.17,15.27.51,29.6.07,5.08.24,8.31.51,9.7.27,1.39.63,2.39,1.08,3.01.44.61,1.18,1.13,2.21,1.54,2.06.74,7.6,1.47,16.65,2.21v7c-12.06-.57-22.33-.86-30.83-.86s-17.26.29-25.48.86Z"/><path class="cls-3" d="M881.67,459.44v-5.16c6.85-3.11,12.3-5.89,16.34-8.35,0-19.48-.21-31.93-.62-37.33,7.12-2.95,12.91-6.1,17.37-9.46l2.47,2.46c-.75,6.8-1.58,21.78-2.47,44.95,5.48.08,8.77.12,9.87.12.62,0,4.14-.08,10.58-.25,3.56-.08,6.23-.25,8.01-.49l.72.86-2.16,11.42c-4.32-.08-8.29-.12-11.92-.12s-8.67.04-15.11.12l-.62,49.98c-.21,12.2-.14,19.49.21,21.86.34,2.38.99,4.44,1.95,6.2.96,1.76,2.21,3.17,3.75,4.24,1.54,1.07,4.16,1.88,7.86,2.46,2.81,0,5.09-.14,6.83-.43,1.75-.29,3.96-1,6.63-2.15l1.23,4.79c-3.22,3.03-6.34,6.18-9.35,9.46-2.6,1.15-5.04,1.9-7.3,2.27-2.26.37-4.87.55-7.81.55-3.63,0-6.53-.49-8.68-1.47-2.16-.98-4.13-2.35-5.91-4.11-1.78-1.76-3.25-3.99-4.42-6.69-1.17-2.7-1.92-6.96-2.26-12.77.07-5.57.21-11.67.41-18.3.07-1.31.1-2.74.1-4.3v-50.97h-4.21c-3.43,0-7.26.21-11.51.61Z"/><path class="cls-3" d="M953.4,459.68v-5.04c5.34-2.7,10.07-5.57,14.18-8.6v-7.37c0-10.64.56-18.15,1.7-22.54,1.13-4.38,2.72-8.29,4.78-11.73,3.08-5.08,7.95-11.54,14.59-19.4,4.45-5.16,7.74-8.39,9.87-9.7,2.81-1.72,6.1-2.58,9.87-2.58,2.67,0,5.41.53,8.22,1.6l.41,20.39-2.36,1.11c-2.12-2.13-4.23-3.68-6.32-4.67-2.09-.98-4.54-1.47-7.35-1.47-3.7,0-6.71.9-9.04,2.7-2.33,1.8-4.03,4.38-5.09,7.74-1.06,3.36-1.59,10.19-1.59,20.51v25.42h10.89c5.48,0,10.86-.25,16.13-.74l1.03.74-2.05,12.65c-5.96-.33-10.34-.49-13.15-.49s-7.16.17-12.84.49v44.03c0,5.41.17,15.29.51,29.64.07,5.09.24,8.32.51,9.72.27,1.39.63,2.4,1.08,3.01.44.61,1.18,1.13,2.21,1.54,2.06.74,7.6,1.48,16.65,2.21v6.88c-15.96-.57-25.69-.86-29.18-.86-3.15,0-11.96.29-26.41.86v-6.88l9.76-.12c1.44-.08,2.55-.39,3.34-.92.79-.53,1.39-1.21,1.8-2.03.75-1.64,1.23-4.55,1.44-8.73,0-1.07.21-12.83.62-35.3v-43.04l-14.18.98Z"/><path class="cls-3" d="M1022.66,499.23c0-18.34,4.88-33.3,14.64-44.89,9.76-11.58,22.28-17.38,37.56-17.38,14.39,0,26.1,5.4,35.14,16.21s13.56,24.77,13.56,41.88c0,11.96-2.33,22.89-6.99,32.79-4.66,9.91-11.24,17.67-19.73,23.27-8.5,5.61-17.85,8.41-28.05,8.41-7.95,0-14.68-1.6-20.19-4.79-5.52-3.19-9.99-7.2-13.41-12.04-3.43-4.83-6.03-9.78-7.81-14.86-3.15-8.92-4.73-18.46-4.73-28.62ZM1042.08,490.14c0,10.07,1.4,20.31,4.21,30.7,2.81,10.4,6.87,17.99,12.18,22.78,5.31,4.79,11.08,7.18,17.32,7.18,7.95,0,14.59-3.76,19.94-11.3,5.34-7.53,8.01-19.12,8.01-34.76,0-13.02-1.59-24.26-4.78-33.71s-7.24-16.13-12.18-20.02c-4.93-3.89-10.38-5.83-16.34-5.83-8.43,0-15.26,3.64-20.5,10.93-5.24,7.29-7.86,18.63-7.86,34.02Z"/><path class="cls-3" d="M1135.8,555.72v-7.12l9.66-.12c1.51-.08,2.65-.39,3.44-.92.79-.53,1.39-1.21,1.8-2.03.75-1.63,1.2-4.54,1.34-8.71.07-1.06.31-12.8.72-35.22v-50.93c0-13.66-.21-27.78-.62-42.34-.28-9.82-.65-15.3-1.13-16.45-.34-.82-.89-1.39-1.64-1.72-1.03-.57-5.75-.86-14.18-.86v-7.24c15.48-2.29,26.24-5.15,32.27-8.59.89-.49,1.58-.74,2.06-.74s.86.18,1.13.55c.27.37.41.88.41,1.53,0,.57-.07,1.39-.21,2.45l-.1,4.05c-.34,14.65-.55,27.12-.62,37.43l-.21,19.15v63.7c.34,21.27.55,32.77.62,34.49.07,4.09.48,7.08,1.23,8.96.27.74.68,1.37,1.23,1.9.55.53,1.37.96,2.47,1.29.48.08,4.28.21,11.41.37v7.12c-9.32-.65-17.5-.98-24.56-.98s-15.55.33-26.51.98Z"/><path class="cls-3" d="M1196.43,454.77v-7c13.29-1.8,24.46-5.24,33.5-10.32l2.26,1.97c-.55,17.44-.82,30.79-.82,40.04v22.35c.34,21.29.55,32.79.62,34.51.07,4.09.44,7.08,1.13,8.97.34.74.79,1.37,1.34,1.9.55.53,1.37.96,2.47,1.29.41.08,4.21.21,11.41.37v6.88c-10.41-.57-18.74-.86-24.97-.86-5.48,0-14.46.29-26.92.86v-6.88l9.76-.12c1.44-.08,2.55-.39,3.34-.92.79-.53,1.39-1.21,1.8-2.03.75-1.64,1.23-4.54,1.44-8.72,0-1.06.21-12.81.62-35.25v-21.62c0-12.2-.34-19.44-1.03-21.74-.41-1.23-1.15-2.15-2.21-2.76-1.06-.61-5.64-.92-13.72-.92ZM1221.5,382.8c3.22,0,5.94,1.35,8.17,4.05,2.23,2.7,3.34,5.98,3.34,9.83s-1.13,7-3.39,9.7c-2.26,2.7-4.97,4.05-8.12,4.05s-5.96-1.35-8.22-4.05c-2.26-2.7-3.39-5.94-3.39-9.7s1.13-7.12,3.39-9.83,5-4.05,8.22-4.05Z"/><path class="cls-3" d="M1260.04,499.23c0-18.34,4.88-33.3,14.64-44.89,9.76-11.58,22.28-17.38,37.56-17.38,14.39,0,26.1,5.4,35.14,16.21s13.56,24.77,13.56,41.88c0,11.96-2.33,22.89-6.99,32.79-4.66,9.91-11.24,17.67-19.73,23.27-8.5,5.61-17.85,8.41-28.05,8.41-7.95,0-14.68-1.6-20.19-4.79-5.52-3.19-9.99-7.2-13.41-12.04-3.43-4.83-6.03-9.78-7.81-14.86-3.15-8.92-4.73-18.46-4.73-28.62ZM1279.46,490.14c0,10.07,1.4,20.31,4.21,30.7,2.81,10.4,6.87,17.99,12.18,22.78,5.31,4.79,11.08,7.18,17.32,7.18,7.95,0,14.59-3.76,19.94-11.3,5.34-7.53,8.01-19.12,8.01-34.76,0-13.02-1.59-24.26-4.78-33.71s-7.24-16.13-12.18-20.02c-4.93-3.89-10.38-5.83-16.34-5.83-8.43,0-15.26,3.64-20.5,10.93-5.24,7.29-7.86,18.63-7.86,34.02Z"/><path class="cls-3" d="M734.92,896.36v10.25h-4.68l-.42-5.31h-8.99v36.49l4.54.89v4.01h-14.56v-4.01l4.54-.89v-36.49h-9.02l-.39,5.31h-4.71v-10.25h33.69Z"/><path class="cls-3" d="M754.93,942.69c-.17-.93-.3-1.77-.39-2.51-.09-.74-.16-1.48-.2-2.23-1.06,1.55-2.38,2.84-3.97,3.87s-3.28,1.54-5.08,1.54c-3.14,0-5.52-.88-7.16-2.62-1.63-1.75-2.45-4.21-2.45-7.4s1.16-5.79,3.47-7.56c2.31-1.77,5.48-2.66,9.51-2.66h5.65v-4.01c0-2.02-.56-3.61-1.67-4.79-1.11-1.18-2.66-1.77-4.65-1.77-1.37,0-2.58.2-3.63.6-1.05.4-1.9.96-2.55,1.65l-.58,3.63h-4.23v-6.68c1.37-1.25,3.03-2.25,4.98-3.01,1.95-.75,4.06-1.13,6.35-1.13,3.42,0,6.18,1,8.3,2.99,2.12,1.99,3.17,4.85,3.17,8.56v16.58c0,.45,0,.88.01,1.3,0,.42.03.85.07,1.27l2.23.35v4.01h-7.18ZM746.11,938.1c1.82,0,3.48-.5,4.98-1.5,1.5-1,2.58-2.2,3.23-3.59v-5.66h-5.85c-2.25,0-4.02.59-5.33,1.78-1.31,1.19-1.96,2.63-1.96,4.33,0,1.51.41,2.66,1.22,3.45.82.79,2.05,1.19,3.7,1.19Z"/><path class="cls-3" d="M765.6,938.68l4.54-.89v-24.59l-4.54-.89v-4.04h9.47l.36,4.49c.96-1.63,2.21-2.9,3.73-3.79,1.52-.89,3.29-1.34,5.29-1.34s3.73.53,5.16,1.59c1.44,1.06,2.52,2.65,3.24,4.77.95-1.95,2.2-3.5,3.76-4.64s3.38-1.72,5.46-1.72c3.08,0,5.51,1.2,7.29,3.61s2.67,6.03,2.67,10.87v15.69l4.54.89v4.01h-14.59v-4.01l4.54-.89v-15.75c0-3.39-.51-5.8-1.53-7.21-1.02-1.41-2.53-2.12-4.54-2.12s-3.45.77-4.61,2.31c-1.16,1.54-1.83,3.47-2.02,5.81v16.96l4.54.89v4.01h-14.56v-4.01l4.54-.89v-15.75c0-3.22-.53-5.58-1.57-7.08s-2.57-2.24-4.55-2.24c-1.67,0-3.04.39-4.12,1.18-1.08.78-1.9,1.89-2.48,3.31v20.58l4.54.89v4.01h-14.56v-4.01Z"/><path class="cls-3" d="M840.21,942.69c-.17-.93-.3-1.77-.39-2.51-.09-.74-.16-1.48-.19-2.23-1.06,1.55-2.38,2.84-3.97,3.87s-3.28,1.54-5.08,1.54c-3.14,0-5.52-.88-7.15-2.62-1.63-1.75-2.45-4.21-2.45-7.4s1.16-5.79,3.47-7.56c2.31-1.77,5.48-2.66,9.51-2.66h5.65v-4.01c0-2.02-.56-3.61-1.67-4.79-1.11-1.18-2.66-1.77-4.65-1.77-1.37,0-2.58.2-3.63.6-1.05.4-1.9.96-2.55,1.65l-.58,3.63h-4.23v-6.68c1.37-1.25,3.03-2.25,4.98-3.01s4.06-1.13,6.35-1.13c3.41,0,6.18,1,8.3,2.99,2.12,1.99,3.17,4.85,3.17,8.56v16.58c0,.45,0,.88.01,1.3,0,.42.03.85.07,1.27l2.23.35v4.01h-7.18ZM831.38,938.1c1.82,0,3.48-.5,4.98-1.5,1.5-1,2.58-2.2,3.23-3.59v-5.66h-5.85c-2.25,0-4.02.59-5.33,1.78-1.31,1.19-1.96,2.63-1.96,4.33,0,1.51.41,2.66,1.23,3.45.82.79,2.05,1.19,3.7,1.19Z"/><path class="cls-3" d="M851.96,912.3v-4.04h9.44l.53,5c.85-1.76,1.91-3.14,3.16-4.14,1.25-1,2.69-1.5,4.3-1.5.43,0,.87.04,1.32.11.45.08.8.15,1.04.24l-.72,5.82-3.12-.19c-1.45,0-2.66.39-3.65,1.16-.98.78-1.75,1.86-2.28,3.26v19.76l4.54.89v4.01h-14.56v-4.01l4.54-.89v-24.59l-4.54-.89Z"/><path class="cls-3" d="M895.19,942.69c-.17-.93-.3-1.77-.39-2.51-.09-.74-.16-1.48-.19-2.23-1.06,1.55-2.38,2.84-3.97,3.87s-3.28,1.54-5.08,1.54c-3.14,0-5.52-.88-7.15-2.62-1.63-1.75-2.45-4.21-2.45-7.4s1.16-5.79,3.47-7.56c2.31-1.77,5.48-2.66,9.51-2.66h5.65v-4.01c0-2.02-.56-3.61-1.67-4.79-1.11-1.18-2.66-1.77-4.65-1.77-1.37,0-2.58.2-3.63.6-1.05.4-1.9.96-2.55,1.65l-.58,3.63h-4.23v-6.68c1.37-1.25,3.03-2.25,4.98-3.01s4.06-1.13,6.35-1.13c3.41,0,6.18,1,8.3,2.99,2.12,1.99,3.17,4.85,3.17,8.56v16.58c0,.45,0,.88.01,1.3,0,.42.03.85.07,1.27l2.23.35v4.01h-7.18ZM886.37,938.1c1.82,0,3.48-.5,4.98-1.5,1.5-1,2.58-2.2,3.23-3.59v-5.66h-5.85c-2.25,0-4.02.59-5.33,1.78-1.31,1.19-1.96,2.63-1.96,4.33,0,1.51.41,2.66,1.23,3.45.82.79,2.05,1.19,3.7,1.19Z"/><path class="cls-3" d="M934.87,896.36v4.04l-4.54.89v26.47c0,3.5.87,6.16,2.62,7.97,1.74,1.81,4.05,2.72,6.9,2.72,3.01,0,5.43-.9,7.27-2.7,1.84-1.8,2.76-4.46,2.76-7.99v-26.47l-4.54-.89v-4.04h14.56v4.04l-4.54.89v26.47c0,5.03-1.43,8.88-4.3,11.57-2.87,2.68-6.6,4.02-11.21,4.02s-8.09-1.34-10.86-4.02-4.15-6.54-4.15-11.57v-26.47l-4.54-.89v-4.04h14.56Z"/><path class="cls-3" d="M973.34,945.52c0,3.54-.8,6.27-2.39,8.19-1.6,1.92-3.81,2.88-6.65,2.88-.59,0-1.13-.05-1.62-.14-.48-.1-.98-.24-1.5-.43l.36-4.93c.26.11.64.2,1.14.27.5.07.91.11,1.22.11,1.21,0,2.17-.47,2.88-1.4.71-.93,1.07-2.45,1.07-4.55v-32.33l-4.54-.89v-4.04h10.02v37.26ZM973.17,899.32h-5.48v-6.27h5.48v6.27Z"/><path class="cls-3" d="M978.83,938.68l4.54-.89v-24.59l-4.54-.89v-4.04h9.46l.36,4.49c.96-1.63,2.21-2.9,3.73-3.79,1.52-.89,3.29-1.34,5.29-1.34s3.73.53,5.16,1.59c1.44,1.06,2.52,2.65,3.24,4.77.95-1.95,2.2-3.5,3.76-4.64s3.38-1.72,5.46-1.72c3.08,0,5.51,1.2,7.29,3.61,1.78,2.41,2.67,6.03,2.67,10.87v15.69l4.54.89v4.01h-14.59v-4.01l4.54-.89v-15.75c0-3.39-.51-5.8-1.53-7.21-1.02-1.41-2.53-2.12-4.54-2.12s-3.45.77-4.61,2.31c-1.16,1.54-1.83,3.47-2.02,5.81v16.96l4.54.89v4.01h-14.56v-4.01l4.54-.89v-15.75c0-3.22-.52-5.58-1.57-7.08s-2.57-2.24-4.55-2.24c-1.67,0-3.04.39-4.12,1.18-1.08.78-1.9,1.89-2.48,3.31v20.58l4.54.89v4.01h-14.56v-4.01Z"/><path class="cls-3" d="M1053.44,942.69c-.17-.93-.3-1.77-.39-2.51-.09-.74-.16-1.48-.19-2.23-1.06,1.55-2.38,2.84-3.97,3.87-1.59,1.03-3.28,1.54-5.08,1.54-3.14,0-5.52-.88-7.16-2.62s-2.45-4.21-2.45-7.4,1.16-5.79,3.47-7.56c2.31-1.77,5.48-2.66,9.51-2.66h5.65v-4.01c0-2.02-.56-3.61-1.67-4.79-1.11-1.18-2.66-1.77-4.65-1.77-1.37,0-2.58.2-3.63.6-1.05.4-1.9.96-2.55,1.65l-.58,3.63h-4.23v-6.68c1.37-1.25,3.04-2.25,4.98-3.01,1.95-.75,4.06-1.13,6.35-1.13,3.42,0,6.18,1,8.3,2.99,2.12,1.99,3.17,4.85,3.17,8.56v16.58c0,.45,0,.88.01,1.3,0,.42.03.85.07,1.27l2.23.35v4.01h-7.18ZM1044.61,938.1c1.82,0,3.48-.5,4.98-1.5,1.5-1,2.58-2.2,3.23-3.59v-5.66h-5.85c-2.25,0-4.02.59-5.33,1.78-1.31,1.19-1.96,2.63-1.96,4.33,0,1.51.41,2.66,1.23,3.45.82.79,2.05,1.19,3.7,1.19Z"/><path class="cls-3" d="M1074.51,945.52c0,3.54-.8,6.27-2.39,8.19-1.6,1.92-3.81,2.88-6.65,2.88-.59,0-1.13-.05-1.62-.14-.48-.1-.98-.24-1.5-.43l.36-4.93c.26.11.64.2,1.14.27.5.07.91.11,1.22.11,1.21,0,2.17-.47,2.88-1.4.71-.93,1.07-2.45,1.07-4.55v-32.33l-4.54-.89v-4.04h10.02v37.26ZM1074.35,899.32h-5.49v-6.27h5.49v6.27Z"/><path class="cls-3" d="M1102.63,937.59c-.95,1.85-2.17,3.27-3.66,4.26s-3.22,1.5-5.16,1.5c-3.27,0-5.82-1.2-7.66-3.59-1.84-2.4-2.76-6.13-2.76-11.2v-15.37l-3.45-.89v-4.04h8.94v20.36c0,3.67.47,6.19,1.42,7.57.95,1.38,2.42,2.07,4.43,2.07s3.56-.45,4.83-1.35c1.27-.9,2.23-2.18,2.88-3.83v-19.88l-4.04-.89v-4.04h9.52v29.53l3.45.89v4.01h-8.38l-.36-5.09Z"/><path class="cls-3" d="M1115.72,912.3v-4.04h9.44l.53,5c.85-1.76,1.91-3.14,3.16-4.14s2.69-1.5,4.3-1.5c.43,0,.87.04,1.32.11.45.08.8.15,1.04.24l-.72,5.82-3.12-.19c-1.45,0-2.66.39-3.65,1.16-.98.78-1.75,1.86-2.28,3.26v19.76l4.54.89v4.01h-14.56v-4.01l4.54-.89v-24.59l-4.54-.89Z"/><path class="cls-3" d="M1139.3,938.68l4.54-.89v-24.59l-4.54-.89v-4.04h10.02v29.53l4.54.89v4.01h-14.56v-4.01ZM1149.32,899.45h-5.48v-6.39h5.48v6.39Z"/><path class="cls-3" d="M1178.33,938.58c-.98,1.57-2.19,2.76-3.61,3.56s-3.07,1.21-4.94,1.21c-3.67,0-6.55-1.52-8.62-4.57-2.07-3.04-3.1-7.05-3.1-12.01v-.67c0-5.54,1.03-10,3.1-13.39s4.96-5.09,8.67-5.09c1.78,0,3.35.38,4.72,1.13s2.53,1.84,3.49,3.26v-14.03l-4.54-.89v-4.04h10.02v44.73l4.54.89v4.01h-9.3l-.45-4.1ZM1163.55,926.78c0,3.46.62,6.24,1.87,8.34,1.24,2.1,3.16,3.15,5.76,3.15,1.63,0,3.01-.42,4.12-1.27,1.11-.85,2.03-2.05,2.76-3.59v-15.97c-.71-1.44-1.62-2.59-2.76-3.44-1.13-.85-2.49-1.27-4.06-1.27-2.62,0-4.55,1.24-5.8,3.72s-1.88,5.71-1.88,9.67v.67Z"/><path class="cls-3" d="M1199.4,937.79h12.31l.45-5.31h4.65v10.21h-23.92v-4.39l16.29-25.07h-11.02l-.42,5.28h-4.68v-10.25h22.83v4.26l-16.48,25.26Z"/><path class="cls-3" d="M1235.73,943.35c-4.19,0-7.53-1.6-10.01-4.79-2.48-3.19-3.72-7.33-3.72-12.42v-1.4c0-4.9,1.28-8.98,3.83-12.23,2.55-3.25,5.57-4.88,9.06-4.88,4.05,0,7.11,1.4,9.2,4.2s3.13,6.53,3.13,11.2v3.91h-19.54l-.08.16c.06,3.31.79,6.03,2.2,8.16s3.39,3.2,5.93,3.2c1.86,0,3.48-.3,4.89-.91,1.4-.6,2.61-1.44,3.63-2.5l2.14,4.07c-1.08,1.19-2.5,2.19-4.27,3.01s-3.9,1.22-6.39,1.22ZM1234.9,912.56c-1.84,0-3.41.89-4.71,2.66-1.3,1.77-2.1,3.99-2.39,6.67l.06.16h13.89v-.83c0-2.46-.58-4.52-1.73-6.17-1.15-1.65-2.86-2.48-5.12-2.48Z"/></svg>